<?xml version="1.0" encoding="utf-8"?>
<!-- Generator: Adobe Illustrator 24.2.3, SVG Export Plug-In . SVG Version: 6.00 Build 0)  -->
<svg version="1.1" id="Layer_1" xmlns="http://www.w3.org/2000/svg" xmlns:xlink="http://www.w3.org/1999/xlink" x="0px" y="0px"
	 viewBox="0 0 421.6 43.8" enable-background="new 0 0 421.6 43.8" xml:space="preserve">
<g>
	<path fill="#5C5C5B" d="M0,10.2l0-0.8l0.1-0.8L0.3,8l0.3-0.7l0.3-0.6L1.3,6l0.5-0.7l0.6-0.6l0.8-0.7l1.1-0.7l1.5-0.8l1.9-0.8
		l1.8-0.6l1.8-0.5l1.9-0.3l2-0.2l2-0.1l0.8,0h14.6l0.4,0l0.3,0.1l0.3,0.1L34,0.2l0.2,0.1l0.2,0.1l0.2,0.2l0.2,0.2L35,1l0.1,0.2
		l0.1,0.3l0.1,0.4l0.1,0.4l0.1,0.6l0,0.8l0,0.5l-0.1,0.4l-0.1,0.3l-0.1,0.3l-0.1,0.2l-0.1,0.2L35,5.8l-0.2,0.2l-0.2,0.1l-0.2,0.1
		l-0.2,0.1L34,6.4l-0.3,0.1l-0.4,0.1l-0.5,0L19.1,6.7l-4,0.3l-2.6,0.4L11,7.9l-0.9,0.3L9.5,8.5L9,8.8L8.6,9.2L8.3,9.5L8.1,9.9
		L8,10.5v8.4h38.3l0.5,0l0.4,0.1l0.3,0.1l0.3,0.1l0.2,0.1l0.2,0.1l0.2,0.2l0.2,0.2l0.2,0.2l0.1,0.2l0.1,0.3l0.1,0.3l0.1,0.4l0.1,0.4
		l0,0.6l0,0.6l-0.1,0.5l-0.1,0.4l-0.1,0.3l-0.1,0.3l-0.1,0.2l-0.2,0.2l-0.2,0.2l-0.2,0.2L47.9,25l-0.2,0.1l-0.3,0.1l-0.3,0.1
		l-0.4,0.1l-0.5,0H8V41l0,0.5l-0.1,0.4l-0.1,0.3l-0.1,0.3l-0.1,0.2l-0.1,0.2l-0.1,0.2l-0.2,0.2L7,43.4l-0.2,0.1l-0.2,0.1l-0.3,0.1
		l-0.3,0.1l-0.4,0.1l-0.5,0l-0.9,0l-0.8,0l-0.7,0l-0.5-0.1L2,43.6l-0.2,0l-0.1,0l-0.3-0.1l-0.2-0.1L1,43.3l-0.2-0.1L0.7,43l-0.1-0.2
		l-0.1-0.2l-0.1-0.2l-0.1-0.2L0.1,42l-0.1-0.3l0-0.4L0,41V10.2z M53.8,20l0.1-1.2l0.2-1.1l0.2-0.9l0.3-0.9l0.4-0.8l0.5-0.7l0.6-0.7
		l0.7-0.7l0.8-0.6l0.9-0.6l1.1-0.6l1.4-0.5l1.5-0.5l1.8-0.4l2-0.3l2.3-0.2L71,9.4l2.5,0l0.4,0l0.3,0.1l0.3,0.1l0.2,0.1l0.2,0.1
		l0.2,0.1l0.2,0.2l0.2,0.2l0.2,0.2l0.1,0.2l0.1,0.3l0.1,0.4l0.1,0.5l0.1,0.6l0,0.5l0,0.4l-0.1,0.3L76,14l-0.1,0.2l-0.1,0.2l-0.1,0.2
		l-0.2,0.2L75.4,15l-0.2,0.2L75,15.3l-0.3,0.1l-0.3,0.1L74,15.7l-0.5,0.1l-0.7,0h-0.2h-0.2h-0.2H72h-0.3h-0.3l-0.3,0l-0.3,0l-0.2,0
		l-0.2,0l-0.2,0l-0.2,0l-2.7,0.1l-1.6,0.2l-1.1,0.3l-0.8,0.3l-0.6,0.3l-0.4,0.3l-0.4,0.3l-0.3,0.3l-0.3,0.3l-0.2,0.4l-0.2,0.4
		l-0.1,0.4l0,0.3l0,0.5v21l0,0.5l-0.1,0.4l-0.1,0.3l-0.1,0.3L61,42.7l-0.1,0.2L60.7,43l-0.1,0.1l-0.2,0.1l-0.2,0.1l-0.2,0.1
		l-0.2,0.1l-0.2,0.1l-0.3,0.1l-0.4,0l-0.6,0l-0.7,0l-0.8,0l-0.8,0l-0.4,0l-0.3-0.1l-0.3-0.1L55,43.5l-0.2-0.1l-0.2-0.1l-0.2-0.1
		L54.3,43l-0.1-0.2l-0.1-0.2L54,42.4L53.9,42l-0.1-0.4l0-0.4l0-0.3V20z M104.9,37.5l1.2-0.1l1-0.1l0.9-0.2l0.7-0.2l0.5-0.2l0.4-0.2
		l0.3-0.2l0.3-0.2l0.2-0.3l0.2-0.3l0.2-0.4l0.2-0.4l0.2-0.5l0.2-0.6l0.1-0.8l0.1-1.2l0-0.2l0-0.2l0-0.2l0-0.2l0-0.2l0-0.2v-0.3v-0.3
		v-0.3v-0.3V29v-0.3l0-0.3l0-0.3l0-0.3l0-0.3l0-0.3l0-0.3v-0.2v-0.2v-0.2V26v-0.2v-0.2h-27l-0.8,0l-0.8,0.1l-0.8,0.1L81.3,26
		l-0.8,0.2l-0.8,0.3l-0.9,0.4l-0.7,0.4l-0.5,0.3l-0.3,0.3L77,28.1l-0.2,0.2l-0.1,0.2l-0.1,0.2l-0.1,0.2l-0.1,0.2l0,0.2l0,0.2v4.3
		l0,0.2l0,0.2l0.1,0.2l0.1,0.2l0.1,0.2l0.1,0.2l0.2,0.2l0.2,0.2l0.3,0.2l0.4,0.2l0.5,0.3l0.7,0.3l0.7,0.2l0.7,0.3l0.8,0.2l0.8,0.2
		l0.8,0.1l0.9,0.1l0.9,0 M85,43.8l-2-0.1l-1.9-0.2l-1.8-0.3l-1.7-0.4l-1.6-0.5l-1.5-0.7l-1.5-0.8l-1.1-0.7l-0.8-0.7l-0.6-0.7
		l-0.5-0.7l-0.4-0.7l-0.3-0.7l-0.3-0.7l-0.2-0.8l-0.1-0.8l0-0.7v-4.4l0-1l0.1-0.9l0.2-0.8l0.3-0.8l0.4-0.7l0.5-0.7l0.6-0.7l0.7-0.6
		l0.8-0.7l1.1-0.7l1.5-0.8l1.5-0.6l1.6-0.5l1.7-0.4l1.8-0.3l2-0.1l1.3,0h26.9l-0.1-0.4l-0.2-0.4l-0.2-0.4l-0.3-0.3l-0.3-0.3
		l-0.4-0.3l-0.5-0.3l-0.7-0.3l-0.8-0.3l-1.4-0.3l-2.1-0.3l-2.9-0.1l-0.7,0l-0.2,0l-0.2,0l-0.2,0l-0.2,0l-0.2,0l-0.2,0H100h-0.2h-0.2
		h-0.2h-0.2h-0.1l0,0l0,0l0,0l0,0l0,0l0,0l-0.1,0l-0.1,0l-0.1,0h0h-0.4h-0.6h-0.9l-0.4,0l-0.3-0.1l-0.3-0.1l-0.2-0.1l-0.2-0.1
		l-0.2-0.1L95,15.1l-0.2-0.2l-0.2-0.2l-0.1-0.2l-0.1-0.3l-0.1-0.4l-0.1-0.4l-0.1-0.6l0-0.8l0-0.5l0.1-0.4l0.1-0.3l0.1-0.3l0.1-0.2
		l0.1-0.2l0.1-0.2l0.2-0.2l0.2-0.1l0.2-0.1l0.2-0.1l0.3-0.1l0.3-0.1l0.4,0l0.5,0l2.9,0l2.7,0.1l2.4,0.2l2.2,0.2l2,0.3l1.7,0.4
		l0.9,0.3l1.6,0.6l1.2,0.6l1,0.7l0.8,0.6l0.7,0.7l0.5,0.7l0.5,0.7l0.4,0.8l0.3,0.8l0.2,0.9l0.1,1l0,1v13.5l-0.1,1.3l-0.2,1.1l-0.3,1
		l-0.4,0.9l-0.5,0.9l-0.5,0.8l-0.6,0.7l-0.7,0.7l-0.8,0.6l-1,0.6l-1.3,0.6l-1.5,0.5l-2.1,0.4l-3,0.3 M189.4,20.6V41l0,0.5l-0.1,0.4
		l-0.1,0.3l-0.1,0.3l-0.1,0.2l-0.1,0.2l-0.1,0.2l-0.2,0.2l-0.2,0.1l-0.2,0.1l-0.2,0.1l-0.3,0.1l-0.3,0.1l-0.4,0.1l-0.5,0l-0.9,0
		l-0.7,0l-0.6,0l-0.5-0.1l-0.4-0.1l-0.1,0l-0.1,0l-0.2-0.1l-0.2-0.1l-0.2-0.1l-0.2-0.1l-0.1-0.1l-0.1-0.1l-0.1-0.2l-0.1-0.2
		l-0.1-0.2l-0.1-0.2l-0.1-0.3l0-0.4l0-0.4V19.7l0-0.4l-0.1-0.4l-0.1-0.4l-0.2-0.4l-0.3-0.3l-0.3-0.3l-0.4-0.3l-0.4-0.3l-0.6-0.3
		l-0.8-0.3l-1.2-0.3l-1.9-0.3l-3.2-0.1h-1h-0.5l-0.1,0l-0.1,0l-0.1,0l-0.1,0l0,0l0,0l-1.5,0.1l-1.3,0.1l-1.1,0.1l-0.9,0.1l-0.8,0.1
		l-0.6,0.1l-0.4,0.1l-0.6,0.3l-0.5,0.3l-0.4,0.3l-0.3,0.3l-0.3,0.3l-0.2,0.3l-0.2,0.3l-0.2,0.4l-0.1,0.4l-0.1,0.5l-0.1,0.5l0,0.4V41
		l0,0.4l-0.1,0.4l-0.1,0.3l-0.1,0.3l-0.1,0.2l-0.1,0.2l-0.1,0.2l-0.1,0.1l-0.2,0.1l-0.2,0.1l-0.2,0.1l-0.2,0.1l-0.2,0.1l-0.1,0
		l-0.1,0l-0.2,0.1l-0.4,0.1l-0.6,0.1l-0.7,0l-0.8,0l-0.7,0l-0.4-0.1l-0.3-0.1l-0.3-0.1l-0.2-0.1l-0.2-0.1l-0.2-0.1l-0.2-0.2
		l-0.1-0.2l-0.1-0.2l-0.1-0.2l-0.1-0.2l-0.1-0.3l-0.1-0.4l0-0.3l0-0.3V20.7l0-0.8l-0.1-0.6l-0.1-0.5l-0.2-0.4l-0.2-0.4l-0.2-0.3
		l-0.2-0.3l-0.3-0.3l-0.3-0.2l-0.3-0.2l-0.2-0.1l-0.5-0.2l-0.7-0.2l-0.8-0.1l-0.9-0.1l-1-0.1l-1.1,0h-0.9h-0.6H144h-0.1l-0.1,0l0,0
		l0,0l0,0l0,0l0,0l0,0l0,0l0,0l0,0l0,0h-0.2h-0.2H143h-0.2h-0.2h-0.2l-0.2,0l-0.2,0l-0.2,0l-0.1,0l-0.1,0l-0.1,0l-3,0.1l-2,0.3
		l-1.3,0.3l-0.9,0.3l-0.6,0.3l-0.5,0.3l-0.4,0.3l-0.3,0.3l-0.3,0.3l-0.2,0.4l-0.2,0.4l-0.1,0.4l0,0.5V41l0,0.5l-0.1,0.4l-0.1,0.3
		l-0.1,0.2l-0.1,0.2l-0.1,0.2l-0.1,0.2l-0.1,0.1l-0.1,0.1l-0.2,0.1l-0.2,0.1l-0.1,0.1l-0.2,0.1l-0.1,0l-0.2,0.1l-0.4,0.1l-0.5,0.1
		l-0.7,0l-0.8,0l-0.9,0l-0.4,0l-0.3-0.1l-0.3-0.1l-0.2-0.1l-0.2-0.1l-0.2-0.1l-0.2-0.1l-0.1-0.2l-0.1-0.2l-0.1-0.2l-0.1-0.2
		l-0.1-0.3l-0.1-0.3l0-0.4l0-0.3V20.6l0.1-1.5l0.2-1.2l0.3-1.1l0.4-1l0.5-0.9l0.6-0.8l0.7-0.8l0.8-0.7l0.9-0.6l1.1-0.6l1.3-0.6
		l1.6-0.5l2.2-0.5l3.2-0.4l3.3-0.1l1,0l1,0l0.9,0l0.8,0l0.8,0l0.7,0l0.6,0l0.6,0l0.5,0l0.5,0l0.4,0l0.8,0.1l1.4,0.3l1.4,0.4l1.3,0.4
		l1.3,0.5l1.3,0.6l0.7,0.4l1.1-0.6l1.2-0.6l1.3-0.5l1.4-0.4l1.5-0.3l1.5-0.3l0.3,0l1-0.1l1.2-0.1l1.4-0.1l1.6,0l1.8,0l3,0l3.1,0.3
		l2.3,0.4l1.7,0.5l1.4,0.6l1.1,0.6l0.9,0.6l0.8,0.7l0.7,0.8l0.6,0.8l0.5,0.9l0.4,1l0.3,1l0.2,1.2L189.4,20.6z M209.7,15.8l-1.8,0.1
		l-1.4,0.2l-1.4,0.3l-1.1,0.3l-0.8,0.3l-0.5,0.3l-0.4,0.3l-0.3,0.2l-0.3,0.2l-0.2,0.2l-0.2,0.2l-0.1,0.2l-0.1,0.3l-0.1,0.3l0,0.2
		l0,0.3v4h32.8v-4.2l0-0.4l-0.1-0.4l-0.2-0.4l-0.3-0.3l-0.4-0.3l-0.5-0.3l-0.7-0.3l-1-0.3l-1.8-0.4l-3.4-0.4l-4.3-0.2l-3.9,0l-2.7,0
		 M225.9,9.3l1.9,0.1l1.8,0.2l1.7,0.3l1.6,0.4l1.5,0.5l1.4,0.6l1.3,0.7l1,0.7l0.8,0.6l0.6,0.6l0.5,0.6l0.4,0.6l0.3,0.7l0.3,0.7
		l0.2,0.8l0.1,0.8l0,0.7v8.4l0,0.7l-0.1,0.5l-0.1,0.4l-0.1,0.3l-0.1,0.2l-0.1,0.2l-0.1,0.2l-0.1,0.1l-0.2,0.1l-0.2,0.1l-0.2,0.1
		l-0.2,0.1l-0.2,0l-0.2,0l-0.2,0h-37.7v0.3l0,0.8l0.1,0.7l0.2,0.6l0.2,0.5l0.3,0.5l0.3,0.5l0.3,0.4l0.4,0.4l0.5,0.4l0.5,0.4l0.7,0.3
		l0.9,0.4l1.2,0.3l0.5,0.1l0.5,0.1l0.6,0.1l0.6,0.1l0.7,0.1l0.8,0.1l0.8,0.1l0.9,0l1,0l1.1,0l1.1,0l1.2,0l0.4,0l0.3,0l0.3,0.1
		l0.3,0.1l0.2,0.1l0.2,0.1l0.2,0.2l0.2,0.2l0.2,0.2l0.1,0.2l0.1,0.3l0.1,0.3l0.1,0.4l0.1,0.5l0,0.7l0,0.5l-0.1,0.4l-0.1,0.3
		l-0.1,0.3l-0.1,0.2l-0.1,0.2l-0.1,0.2l-0.2,0.2l-0.2,0.1l-0.2,0.1l-0.2,0.1l-0.3,0.1l-0.3,0.1l-0.3,0.1l-0.5,0l-1.2,0l-1.2,0
		l-1.1,0l-1,0l-0.9,0l-0.8,0l-0.8,0l-0.7,0l-0.6,0l-0.6,0l-0.5,0l-0.5,0l-1.9-0.2l-1.8-0.3l-1.6-0.4l-1.4-0.5l-1.1-0.5l-0.9-0.5
		l-0.9-0.7l-1-0.9l-0.8-0.9l-0.6-0.8l-0.5-0.8l-0.4-0.8l-0.3-0.9l-0.2-0.9l-0.1-0.9l0-0.5V20.2l0.1-1l0.1-0.9l0.2-0.9l0.3-0.8
		l0.4-0.8l0.5-0.8l0.6-0.7l0.7-0.7l0.9-0.7l1.1-0.7l1.5-0.8l1.5-0.6l1.7-0.5l1.9-0.4l2-0.3l2.2-0.2 M244.5,10.7l0-0.9l0.1-0.9
		l0.2-0.8l0.3-0.8l0.4-0.8l0.5-0.8l0.6-0.7l0.8-0.8l1-0.8l1.1-0.7l1.2-0.6l1.3-0.6l1.3-0.5l1.4-0.4l1.2-0.3l0.4-0.1l0.4-0.1l0.5,0
		l0.5,0l0.5,0l0.6,0l0.6,0l0.6,0l0.6,0l0.7,0l0.7,0l0.6,0h28.6l0.4,0l0.3,0.1l0.3,0.1l0.2,0.1l0.2,0.1l0.2,0.1l0.2,0.2l0.2,0.2
		l0.2,0.2l0.1,0.2l0.1,0.3l0.1,0.4l0.1,0.4l0.1,0.6l0,0.7l0,0.5L294,4.6L294,4.9l-0.1,0.3l-0.1,0.2l-0.1,0.2l-0.1,0.2l-0.2,0.2
		l-0.2,0.1L293,6.2l-0.2,0.1l-0.3,0.1l-0.3,0.1l-0.4,0.1l-0.5,0h-28.4l-3.2,0.1l-2.3,0.3L256,7.3l-0.9,0.3l-0.6,0.3L254,8.1
		l-0.4,0.3l-0.3,0.3L253,9.1l-0.2,0.4l-0.1,0.4l-0.1,0.3l0,0.4v21.7l0,0.5l0.1,0.5l0.2,0.5l0.2,0.4l0.3,0.4l0.4,0.4l0.5,0.3l0.5,0.3
		l0.7,0.3l0.9,0.3l1.4,0.3l2.2,0.3l3.9,0.2h27.2l0.4,0l0.4,0.1l0.3,0.1l0.3,0.1l0.2,0.1l0.2,0.1l0.2,0.2l0.2,0.2l0.2,0.2l0.1,0.2
		l0.1,0.3l0.1,0.3l0.1,0.4l0.1,0.4l0,0.6l0,0.7l-0.1,0.5l-0.1,0.4l-0.1,0.3l-0.1,0.3l-0.1,0.2l-0.2,0.2l-0.2,0.2l-0.2,0.2l-0.2,0.1
		l-0.2,0.1l-0.3,0.1l-0.3,0.1l-0.4,0.1l-0.4,0H264l-1.8,0l-1.6,0l-1.4-0.1l-1.2-0.1l-1.1-0.1l-0.9-0.1l-0.9-0.2l-0.9-0.2l-0.9-0.3
		l-0.9-0.4l-0.9-0.4l-0.9-0.5l-1-0.5l-0.9-0.6l-0.8-0.6l-0.7-0.6l-0.6-0.6l-0.4-0.5l-0.5-0.7l-0.3-0.6L245,36l-0.2-0.8l-0.2-1
		l-0.1-1l0-0.6V10.7z M312.8,43.8l-2-0.2l-1.9-0.3l-1.9-0.4l-1.8-0.5l-1.7-0.6l-1-0.5l-1.2-0.7l-0.9-0.7l-0.7-0.7l-0.6-0.7l-0.5-0.7
		l-0.4-0.8l-0.3-0.8l-0.3-0.8l-0.2-0.9l-0.1-0.7l0-0.6V20.4l0.1-1l0.1-0.9l0.2-0.9l0.3-0.8l0.4-0.8l0.5-0.7l0.6-0.7l0.7-0.7l0.9-0.7
		l1.2-0.8l1.6-0.9l1.6-0.7l1.7-0.5l1.8-0.4l2-0.3l2.1-0.2l1.8,0h12.7l4.1,0.2l2.9,0.4l2.1,0.5l1.5,0.6l1.3,0.6l1,0.6l0.9,0.7
		l0.8,0.7l0.6,0.8l0.5,0.9l0.4,0.9l0.3,1l0.2,1.1l0.1,0.8l0.1,1.2v12.7l-0.1,1.1l-0.2,1l-0.2,0.9l-0.3,0.8l-0.4,0.8l-0.5,0.7
		l-0.6,0.7l-0.6,0.6l-0.8,0.6l-1,0.7l-1.5,0.8l-1.3,0.6l-1.6,0.5l-1.8,0.4l-1.9,0.3l-2.1,0.2l-1.9,0 M327.3,37.5l1,0l1-0.1l0.9-0.1
		l0.9-0.2l0.9-0.2l0.9-0.3l1-0.4l0.7-0.3l0.5-0.3l0.4-0.3l0.3-0.3l0.2-0.3l0.2-0.3l0.1-0.3l0.1-0.3l0.1-0.3l0-0.3l0-0.3V19.9l0-0.4
		l-0.1-0.4l-0.1-0.4l-0.2-0.4l-0.3-0.3l-0.3-0.3l-0.4-0.3l-0.4-0.3l-0.6-0.3l-0.8-0.3l-1.1-0.3l-1.8-0.3l-3.2-0.1h-12.3l-1.1,0
		l-1.1,0.1l-1.1,0.1l-1,0.2l-1,0.2l-0.9,0.3l-1,0.4l-0.8,0.4l-0.6,0.3L306,18l-0.3,0.3l-0.2,0.3l-0.2,0.3l-0.2,0.3l-0.1,0.3
		l-0.1,0.3l-0.1,0.3l0,0.4v12.7l0,0.3l0,0.3L305,34l0.1,0.3l0.1,0.3l0.2,0.3l0.2,0.3l0.3,0.3l0.3,0.3l0.4,0.3l0.6,0.3l0.9,0.3
		l1.1,0.3l0.9,0.2l1,0.2l1,0.1l1.1,0.1l1.1,0 M348.4,20l0.1-1.2l0.2-1.1l0.2-0.9l0.3-0.9l0.4-0.8l0.5-0.7l0.6-0.7l0.7-0.7l0.8-0.6
		l0.9-0.6l1.1-0.6l1.4-0.5l1.5-0.5l1.8-0.4l2-0.3l2.3-0.2l2.5-0.1l2.5,0l0.4,0l0.3,0.1l0.3,0.1l0.2,0.1l0.2,0.1l0.2,0.1l0.2,0.2
		l0.2,0.2l0.2,0.2l0.1,0.2l0.1,0.3l0.1,0.4l0.1,0.5l0.1,0.6l0,0.5l0,0.4l-0.1,0.3l-0.1,0.3l-0.1,0.2l-0.1,0.2l-0.1,0.2l-0.2,0.2
		L370,15l-0.2,0.2l-0.2,0.1l-0.3,0.1l-0.3,0.1l-0.4,0.1l-0.5,0.1l-0.7,0h-0.2h-0.2h-0.2h-0.2h-0.3H366l-0.3,0l-0.3,0l-0.2,0l-0.2,0
		l-0.2,0l-0.2,0l-2.7,0.1l-1.6,0.2l-1.1,0.3l-0.8,0.3l-0.6,0.3l-0.4,0.3l-0.4,0.3l-0.3,0.3l-0.3,0.3l-0.2,0.4l-0.2,0.4l-0.1,0.4
		l0,0.3l0,0.5v21l0,0.5l-0.1,0.4l-0.1,0.3l-0.1,0.3l-0.1,0.2l-0.1,0.2l-0.1,0.2l-0.1,0.1l-0.2,0.1l-0.2,0.1l-0.2,0.1l-0.2,0.1
		l-0.2,0.1l-0.3,0.1l-0.4,0l-0.5,0l-0.7,0l-0.8,0l-0.8,0l-0.4,0l-0.3-0.1l-0.3-0.1l-0.2-0.1l-0.2-0.1l-0.2-0.1l-0.2-0.1l-0.1-0.2
		l-0.1-0.2l-0.1-0.2l-0.1-0.2l-0.1-0.3l-0.1-0.4l0-0.4l0-0.3V20z M390.1,15.8l-1.8,0.1l-1.4,0.2l-1.4,0.3l-1.1,0.3l-0.8,0.3
		l-0.5,0.3l-0.4,0.3l-0.3,0.2l-0.3,0.2l-0.2,0.2l-0.2,0.2l-0.1,0.2l-0.1,0.3l-0.1,0.3l0,0.2l0,0.3v4h32.8v-4.2l0-0.4l-0.1-0.4
		l-0.2-0.4l-0.3-0.3l-0.4-0.3l-0.5-0.3l-0.7-0.3l-1-0.3l-1.8-0.4l-3.4-0.4l-4.3-0.2l-3.9,0l-2.7,0 M406.3,9.3l1.9,0.1l1.8,0.2
		l1.7,0.3l1.6,0.4l1.5,0.5l1.4,0.6l1.3,0.7l1,0.7l0.8,0.6l0.6,0.6l0.5,0.6l0.4,0.6l0.3,0.7l0.3,0.7l0.2,0.8l0.1,0.8l0,0.7v8.4l0,0.7
		l-0.1,0.5l-0.1,0.4l-0.1,0.3l-0.1,0.2l-0.1,0.2l-0.1,0.2l-0.1,0.1l-0.2,0.1l-0.2,0.1l-0.2,0.1l-0.2,0.1l-0.2,0l-0.2,0l-0.2,0h-37.7
		v0.3l0,0.8l0.1,0.7l0.2,0.6l0.2,0.5l0.3,0.5l0.3,0.5l0.3,0.4l0.4,0.4l0.5,0.4l0.5,0.4l0.7,0.3l0.9,0.4l1.2,0.3l0.5,0.1l0.5,0.1
		l0.6,0.1l0.6,0.1l0.7,0.1l0.8,0.1l0.8,0.1l0.9,0l1,0l1.1,0l1.1,0l1.2,0l0.4,0l0.3,0l0.3,0.1l0.2,0.1l0.2,0.1l0.2,0.1l0.2,0.2
		l0.2,0.2l0.2,0.2l0.1,0.2l0.1,0.3l0.1,0.3l0.1,0.4l0.1,0.5l0,0.7l0,0.5l-0.1,0.4l-0.1,0.3l-0.1,0.3l-0.1,0.2l-0.1,0.2l-0.1,0.2
		l-0.2,0.2l-0.2,0.1l-0.2,0.1l-0.2,0.1l-0.3,0.1l-0.3,0.1l-0.3,0.1l-0.4,0l-1.2,0l-1.2,0l-1.1,0l-1,0l-0.9,0l-0.8,0l-0.8,0l-0.7,0
		l-0.7,0l-0.6,0l-0.5,0l-0.5,0l-1.8-0.2l-1.8-0.3l-1.7-0.4l-1.4-0.5l-1.1-0.5l-0.9-0.5l-0.8-0.6l-1-0.9l-0.8-0.9l-0.6-0.8l-0.5-0.8
		l-0.4-0.8l-0.3-0.9l-0.2-0.9l-0.1-0.9l0-0.6V20.2l0.1-1l0.1-0.9l0.2-0.9l0.3-0.8l0.4-0.8l0.5-0.8l0.6-0.7l0.7-0.7l0.9-0.7l1.1-0.7
		l1.5-0.8l1.5-0.6l1.7-0.5l1.9-0.4l2-0.3l2.2-0.2"/>
</g>
<polygon fill="#F9B233" points="318.6,32.2 318.6,32.2 317.9,32.2 317.2,32.2 316.5,32.1 315.9,31.9 315.3,31.7 314.7,31.5 
	314.4,31.4 314,31.1 313.6,30.9 313.4,30.7 313.2,30.4 313,30.2 312.9,29.9 312.7,29.6 312.7,29.4 312.6,29 312.6,28.8 312.6,28.6 
	312.6,24.3 312.6,23.9 312.6,23.6 312.7,23.3 312.8,23 313,22.8 313.1,22.5 313.3,22.3 313.5,22 313.9,21.8 314.3,21.5 314.8,21.2 
	315.3,21 315.9,20.8 316.6,20.7 317.2,20.6 317.9,20.5 318.5,20.5 322.8,20.5 324.3,20.6 325.2,20.7 326,20.9 326.5,21.1 
	326.9,21.3 327.2,21.5 327.5,21.7 327.8,22 328,22.3 328.2,22.5 328.3,22.9 328.4,23.2 328.5,23.6 328.6,23.8 328.6,24.2 
	328.6,28.6 328.6,29 328.5,29.3 328.4,29.6 328.3,29.9 328.2,30.2 328,30.4 327.8,30.7 327.6,30.9 327.3,31.1 327,31.3 326.5,31.6 
	326,31.8 325.5,31.9 324.9,32.1 324.2,32.2 323.5,32.2 322.8,32.2 "/>
</svg>
